{"title":"Jealousy.[La.Jalousie].2013.DVDRip.x264.HORiZON-ArtSubs","uid":10070227,"size":1454111294,"categoryP":"video","categoryS":"movies","magnet":"?xt=urn:btih:e19d5c0d308498198c5d2f12469a375b7af71063&amp;dn=Jealousy.%5BLa.Jalousie%5D.2013.DVDRip.x264.HORiZON-ArtSubs&amp;tr=udp%3A%2F%2Ftracker.openbittorrent.com%3A80&amp;tr=udp%3A%2F%2Fopen.demonii.com%3A1337&amp;tr=udp%3A%2F%2Ftracker.coppersurfer.tk%3A6969&amp;tr=udp%3A%2F%2Fexodus.desync.com%3A6969","seeders":17,"leechers":1,"uploader":"lletaif","files":1,"time":1398838614,"description":"Title:\nLa Jalousie Aka Jealousy\n\n\n\nCountry:\nFrance, 2013\n\n\n\nLanguage:\nFrench\n\n\nNo Subtitle\n\n\nIMDB: &lt;a href=&quot;\nhttp://www.imdb.com/title/tt2511670/?ref_=nm_flmg_wr_2&quot; rel=&quot;nofollow&quot; target=&quot;_NEW&quot;&gt;\nhttp://www.imdb.com/title/tt2511670/?ref_=nm_flmg_wr_2&lt;/a&gt;\n\n\nPlot:\nA theater actor is torn between the woman he lives with, and the woman he loves. But she cheats on him. The new film from the french master Philippe Garrel.\n\nTrivia:\nOfficial Selection Venice Film Festival 2013\n\n\n\nMedia Info:\n\nGeneral\nUnique ID                                : 6808851669899131686316229986297972072 (0x51F564E44F1DE7F9299B47425760568)\nComplete name                            : Jealousy.[La.Jalousie].2013.DVDRip.x264.HORiZON-ArtSubs.mkv\nFormat                                   : Matroska\nFormat version                           : Version 2\nFile size                                : 1.35 GiB\nDuration                                 : 1h 12mn\nOverall bit rate                         : 2 663 Kbps\nWriting application                      : HandBrake 0.9.9\nWriting library                          : libmkv 0.6.5\n\nVideo\nID                                       : 1\nFormat                                   : AVC\nFormat/Info                              : Advanced Video Codec\nFormat profile                           : &lt;a class=&quot;__cf_email__&quot; href=&quot;/cdn-cgi/l/email-protection&quot; data-cfemail=&quot;b4fcddd3dcf4f8879a85&quot;&gt;[email&amp;#160;protected]&lt;/a&gt;&lt;script cf-hash='f9e31' type=&quot;text/javascript&quot;&gt;\n/* &lt;![CDATA[ */!function(){try{var t=&quot;currentScript&quot;in document?document.currentScript:function(){for(var t=document.getElementsByTagName(&quot;script&quot;),e=t.length;e--;)if(t[e].getAttribute(&quot;cf-hash&quot;))return t[e]}();if(t&amp;&amp;t.previousSibling){var e,r,n,i,c=t.previousSibling,a=c.getAttribute(&quot;data-cfemail&quot;);if(a){for(e=&quot;&quot;,r=parseInt(a.substr(0,2),16),n=2;a.length-n;n+=2)i=parseInt(a.substr(n,2),16)^r,e+=String.fromCharCode(i);e=document.createTextNode(e),c.parentNode.replaceChild(e,c)}}}catch(u){}}();/* ]]&gt; */&lt;/script&gt;\nFormat settings, CABAC                   : Yes\nFormat settings, ReFrames                : 14 frames\nCodec ID                                 : V_MPEG4/ISO/AVC\nDuration                                 : 1h 12mn\nBit rate                                 : 2 162 Kbps\nWidth                                    : 720 pixels\nHeight                                   : 436 pixels\nDisplay aspect ratio                     : 2.35:1\nFrame rate mode                          : Constant\nFrame rate                               : 25.000 fps\nColor space                              : YUV\nChroma subsampling                       : 4:2:0\nBit depth                                : 8 bits\nScan type                                : Progressive\nBits/(Pixel*Frame)                       : 0.275\nStream size                              : 1.10 GiB (81%)\nWriting library                          : x264 core 130 r2273 b3065e6\nEncoding settings                        : cabac=1 / ref=14 / deblock=1:-1:-1 / analyse=0x3:0x133 / me=umh / subme=10 / psy=1 / psy_rd=1.00:0.15 / mixed_ref=1 / me_range=24 / chroma_me=1 / trellis=2 / 8x8dct=1 / cqm=0 / deadzone=21,11 / fast_pskip=0 / chroma_qp_offset=-3 / threads=12 / lookahead_threads=2 / sliced_threads=0 / nr=0 / decimate=1 / interlaced=0 / bluray_compat=0 / constrained_intra=0 / bframes=8 / b_pyramid=2 / b_adapt=2 / b_bias=0 / direct=3 / weightb=1 / open_gop=0 / weightp=2 / keyint=250 / keyint_min=25 / scenecut=40 / intra_refresh=0 / rc_lookahead=60 / rc=crf / mbtree=1 / crf=19.0 / qcomp=0.60 / qpmin=0 / qpmax=69 / qpstep=4 / vbv_maxrate=17500 / vbv_bufsize=17500 / crf_max=0.0 / nal_hrd=none / ip_ratio=1.40 / aq=1:1.00\nLanguage                                 : English\nDefault                                  : Yes\nForced                                   : No\nColor primaries                          : BT.601 PAL\nTransfer characteristics                 : BT.709\nMatrix coefficients                      : BT.601\n\nAudio\nID                                       : 2\nFormat                                   : AC-3\nFormat/Info                              : Audio Coding 3\nMode extension                           : CM (complete main)\nFormat settings, Endianness              : Big\nCodec ID                                 : A_AC3\nDuration                                 : 1h 12mn\nBit rate mode                            : Constant\nBit rate                                 : 448 Kbps\nChannel(s)                               : 6 channels\nChannel positions                        : Front: L C R, Side: L R, LFE\nSampling rate                            : 48.0 KHz\nBit depth                                : 16 bits\nCompression mode                         : Lossy\nStream size                              : 233 MiB (17%)\nLanguage                                 : French\nDefault                                  : Yes\nForced                                   : No\n\nMenu\n00:00:00.000                             : Chapter 1\n00:06:22.320                             : Chapter 2\n00:13:45.760                             : Chapter 3\n00:18:55.840                             : Chapter 4\n00:24:06.960                             : Chapter 5\n00:32:59.720                             : Chapter 6\n00:37:51.440                             : Chapter 7\n00:43:23.120                             : Chapter 8\n00:50:35.240                             : Chapter 9\n00:57:16.600                             : Chapter 10\n01:03:49.040                             : Chapter 11\n01:09:36.040                             : Chapter 12\n\n","torrent":{"xt":"urn:btih:e19d5c0d308498198c5d2f12469a375b7af71063","amp;dn":"Jealousy.%5BLa.Jalousie%5D.2013.DVDRip.x264.HORiZON-ArtSubs","amp;tr":["udp%3A%2F%2Ftracker.openbittorrent.com%3A80","udp%3A%2F%2Fopen.demonii.com%3A1337","udp%3A%2F%2Ftracker.coppersurfer.tk%3A6969","udp%3A%2F%2Fexodus.desync.com%3A6969"],"infoHash":"e19d5c0d308498198c5d2f12469a375b7af71063","infoHashBuffer":{"type":"Buffer","data":[225,157,92,13,48,132,152,25,140,93,47,18,70,154,55,91,122,247,16,99]},"announce":[],"urlList":[]}}